<svg xmlns="http://www.w3.org/2000/svg" version="1.1" xmlns:xlink="http://www.w3.org/1999/xlink" width="1000" height="1000"><g clip-path="url(#SvgjsClipPath1205)"><rect width="1000" height="1000" fill="#000000"></rect><g transform="matrix(2.404550095795558,0,0,2.404550095795558,150.00000000000003,207.29304681401405)"><svg xmlns="http://www.w3.org/2000/svg" version="1.1" id="svg1" width="291.11475" height="243.46089" viewBox="0 0 291.11475 243.46089" sodipodi:docname="logo.white.svg" inkscape:version="1.4.3 (0d15f75, 2025-12-25)" xmlns:inkscape="http://www.inkscape.org/namespaces/inkscape" xmlns:sodipodi="http://sodipodi.sourceforge.net/DTD/sodipodi-0.dtd" xmlns:svg="http://www.w3.org/2000/svg"><defs id="defs1">
    <linearGradient id="swatch42" inkscape:swatch="solid">
      <stop style="stop-color:#171717;stop-opacity:1;" offset="0" id="stop43"></stop>
    </linearGradient>
    <linearGradient id="swatch41" inkscape:swatch="solid">
      <stop style="stop-color:#000000;stop-opacity:1;" offset="0" id="stop42"></stop>
    </linearGradient>
    <linearGradient id="swatch21" inkscape:swatch="solid">
      <stop style="stop-color:#0b0808;stop-opacity:1;" offset="0" id="stop21"></stop>
    </linearGradient>
    <pattern id="EMFhbasepattern" patternUnits="userSpaceOnUse" width="6" height="6" x="0" y="0"></pattern>
  <clipPath id="SvgjsClipPath1205"><rect width="1000" height="1000" x="0" y="0" rx="500" ry="500"></rect></clipPath></defs><sodipodi:namedview id="namedview1" pagecolor="#ffffff" bordercolor="#111111" borderopacity="1" inkscape:showpageshadow="0" inkscape:pageopacity="0" inkscape:pagecheckerboard="1" inkscape:deskcolor="#d1d1d1" inkscape:zoom="0.5" inkscape:cx="-81" inkscape:cy="283" inkscape:window-width="2560" inkscape:window-height="1017" inkscape:window-x="-8" inkscape:window-y="-8" inkscape:window-maximized="1" inkscape:current-layer="g1"></sodipodi:namedview><g inkscape:groupmode="layer" inkscape:label="Image" id="g1" style="display:inline" transform="translate(-489.30485,-307.57555)">
    <path style="fill:#ffffff;stroke:#ffffff;stroke-width:0.025389" d="m 489.38991,550.5504 c 0.1042,-0.357 14.6041,-54.9018 32.222,-121.2108 17.6178,-66.3089 32.1167,-120.84261 32.2197,-121.18598 0.1785,-0.59504 4.7373,-0.61949 97.3004,-0.52175 l 97.1132,0.10253 2.7935,0.7891 c 7.3603,2.07909 13.0215,5.2435 17.8492,9.9771 5.3115,5.208 9.0511,11.9017 10.7246,19.1962 0.9951,4.3375 1.065,11.5179 0.1537,15.8056 -0.8963,4.2178 -13.5076,51.4916 -14.6089,54.7618 -1.0801,3.2076 -3.8356,9.1457 -5.6511,12.1782 -4.2255,7.0579 -11.6317,15.114 -18.0929,19.6806 -6.1724,4.3625 -13.4028,7.8005 -20.4899,9.7428 -7.9636,2.1826 -9.4761,2.278 -36.1093,2.278 h -23.9856 l -28.4165,16.4031 c -15.6291,9.0216 -28.441,16.38 -28.4709,16.3518 -0.03,-0.028 4.7462,-18.1089 10.6134,-40.1795 l 10.6677,-40.1283 46.5505,-0.09 c 43.9474,-0.085 46.5605,-0.1242 46.7307,-0.7071 0.9143,-3.1326 12.5945,-47.401 12.5945,-47.7336 0,-0.3478 -14.675,-0.42 -70.9448,-0.3492 l -70.9449,0.089 -21.4954,80.9637 c -11.8225,44.5301 -21.6233,81.1785 -21.7796,81.4411 -0.2039,0.3424 -49.7542,29.1796 -56.0806,32.6377 -0.5432,0.2969 -0.6205,0.248 -0.4627,-0.2926 z" id="path6"></path>
  </g></svg></g></g></svg>